<svg t="1598239747548" class="icon" viewBox="0 0 1024 1024" version="1.1" xmlns="http://www.w3.org/2000/svg" p-id="3847" width="200" height="200"><path d="M811.6 264.1H378.2c-19.8 0-36-16.2-36-36s16.2-36 36-36h433.5c19.8 0 36 16.2 36 36-0.1 19.8-16.3 36-36.1 36zM811.6 522.1H378.2c-19.8 0-36-16.2-36-36s16.2-36 36-36h433.5c19.8 0 36 16.2 36 36-0.1 19.8-16.3 36-36.1 36zM811.6 780.1H378.2c-19.8 0-36-16.2-36-36s16.2-36 36-36h433.5c19.8 0 36 16.2 36 36-0.1 19.8-16.3 36-36.1 36z" p-id="3848" fill="#303133"></path><path d="M210.2 229m-37.9 0a37.9 37.9 0 1 0 75.8 0 37.9 37.9 0 1 0-75.8 0Z" p-id="3849" fill="#303133"></path><path d="M210.2 487m-37.9 0a37.9 37.9 0 1 0 75.8 0 37.9 37.9 0 1 0-75.8 0Z" p-id="3850" fill="#303133"></path><path d="M210.2 745m-37.9 0a37.9 37.9 0 1 0 75.8 0 37.9 37.9 0 1 0-75.8 0Z" p-id="3851" fill="#303133"></path></svg>