<svg t="1599790795545" class="icon" viewBox="0 0 1024 1024" version="1.1" xmlns="http://www.w3.org/2000/svg" p-id="3670" width="200" height="200"><path d="M512 195.648c188.544 0 359.168 106.624 512 320-152.832 213.312-323.456 320-512 320-188.544 0-359.168-106.688-512-320 152.832-213.376 323.456-320 512-320z m0 89.6c-136 0-263.744 68.736-385.088 212.736l-14.528 17.664 14.528 17.6C248.32 677.248 376 746.048 512 746.048c141.44 0 273.92-74.368 399.616-230.4-125.632-156.032-258.176-230.4-399.616-230.4z m0 57.6a172.8 172.8 0 1 1 0 345.6 172.8 172.8 0 0 1 0-345.6z m0 89.6a83.2 83.2 0 1 0 0 166.4 83.2 83.2 0 0 0 0-166.4z" fill="#333333" p-id="3671"></path></svg>