<svg t="1601365480767" class="icon" viewBox="0 0 1024 1024" version="1.1" xmlns="http://www.w3.org/2000/svg" p-id="15055" width="200" height="200"><path d="M511.48 22.62c-270.41 0-489.62 218.97-489.62 489.09s219.21 489.09 489.62 489.09c270.41 0 489.61-218.97 489.61-489.09S781.88 22.62 511.48 22.62z m250.51 648.59L506.26 778.34c-2.32 2.37-7.03 2.37-9.38 2.37-4.7 0-7.03 0-9.38-2.37L234.13 671.21c-9.4-4.77-16.43-14.28-16.43-23.8 0-14.28 11.72-26.19 25.8-26.19 4.7 0 7.05 0 9.38 2.37l246.35 102.36 244-102.36c2.33-2.37 7.03-2.37 9.38-2.37 14.08 0 25.8 11.91 25.8 26.19 0 11.88-7.02 21.42-16.42 23.8z m2.35-138.08L508.61 640.27c-2.35 2.37-7.03 2.37-9.38 2.37-4.7 0-7.05 0-9.38-2.37L234.13 533.13c-9.4-4.77-16.43-14.28-16.43-23.79 0-14.3 11.72-26.19 25.8-26.19 4.7 0 7.05 0 9.38 2.37l246.35 100 244-102.37c2.33-2.4 7.03-2.4 9.38-2.4 14.08 0 25.8 11.91 25.8 26.19 2.35 11.92-4.67 21.43-14.07 26.19z m0-133.3L508.61 506.94c-2.35 2.4-7.03 2.4-9.38 2.4-4.7 0-7.05 0-9.38-2.4L234.13 399.83c-9.4-4.77-16.43-14.28-16.43-23.82 0-9.52 7.03-21.42 16.43-23.79l255.73-107.14c2.33-2.37 7.03-2.37 9.38-2.37 4.7 0 7.03 0 9.38 2.37l255.73 107.14c9.4 4.77 16.43 14.28 16.43 23.79-0.02 9.54-7.04 19.05-16.44 23.82z" p-id="15056" fill="#777777"></path></svg>