<svg t="1601364278540" class="icon" viewBox="0 0 1024 1024" version="1.1" xmlns="http://www.w3.org/2000/svg" p-id="9741" width="200" height="200"><path d="M338.8 474.9c24.8 0 45-20.1 45-45s-20.1-45-45-45c-24.8 0-45 20.1-45 45 0 24.8 20.2 45 45 45z m0 0M607.9 446.8l-161.5 188-83.8-96-136.3 161.1h545.1L607.9 446.8z m0 0" p-id="9742" fill="#777777"></path><path d="M841.4 261.1H181.3c-12.4 0-22.5 10.1-22.5 22.5v472.5c0 12.4 10.1 22.5 22.5 22.5h660.1c12.4 0 22.5-10.1 22.5-22.5V283.6c0-12.4-10.1-22.5-22.5-22.5z m-22.5 472.5H203.8V306.1h615.1v427.5z m0 0" p-id="9743" fill="#777777"></path></svg>