<svg t="1598239546119" class="icon" viewBox="0 0 1024 1024" version="1.1" xmlns="http://www.w3.org/2000/svg" p-id="2189" width="200" height="200"><path d="M511.54 477.06l-1.11-0.04c-12.14-0.43-23.87-3.38-34.86-8.79L195.22 340.26c-18.8-8.13-33.57-23.46-41.03-42.92-7.33-19.13-6.66-39.92 1.91-58.56 7.99-17.36 22.12-31.09 39.79-38.67L462.34 77.78a118.24 118.24 0 0 1 98.1-0.04l267.35 122.69c18.75 8.1 33.52 23.43 40.98 42.9 7.33 19.12 6.66 39.91-1.91 58.54-7.99 17.37-22.12 31.11-39.8 38.68L546.6 468.53c-9.54 4.91-21.71 8.06-33.96 8.49l-1.1 0.04z m-0.08-347.53a55.96 55.96 0 0 0-23.16 5.03L221.21 257.17c-4.17 1.79-6.89 4.41-8.39 7.69-1.9 4.14-1.23 7.79-0.34 10.13 1.4 3.65 4.27 6.56 8.09 8.21l281.72 128.63c3.41 1.66 6.32 2.49 9.23 2.73 2.8-0.23 5.52-1 7.93-2.23l282.38-128.88c4.09-1.76 6.81-4.38 8.32-7.66 1.9-4.14 1.23-7.79 0.34-10.13-1.39-3.65-4.27-6.56-8.09-8.21L534.5 134.51a55.856 55.856 0 0 0-23.04-4.98zM426.88 956.94h-0.56c-12.63 0-25.19-3.16-36.32-9.14L127.1 824.59c-28.5-14.88-45.26-42.86-44.94-73.61V435.19c0.16-28.59 15.5-55.35 40.02-69.98 23.74-13.45 52.4-13.7 75.75-1.02l262.99 123.43c27.08 14.57 43.6 41.18 44.72 70.24l0.02 317.68c-0.32 28.97-15.12 54.95-39.6 69.84-11.94 7.11-25.21 11.05-38.63 11.53l-0.55 0.03z m-265.93-539.7c-2.56 0-5.12 0.64-7.41 1.94-5.34 3.19-8.92 9.38-8.96 16.19v315.91c-0.07 7.51 3.85 14.04 10.23 17.39l263.22 123.37c3.33 1.74 5.58 2.37 7.75 2.46 2.76-0.19 5.55-1.09 8.08-2.6 5.7-3.46 9.3-9.75 9.37-16.69V559.06c-0.24-5.9-4.25-12.39-10.4-15.71L168.34 419.17a14.99 14.99 0 0 0-7.39-1.93zM598.43 957.11h-0.77c-13.44-0.03-26.79-3.57-38.63-10.23-25.37-15.39-40.18-41.37-40.51-70.02V559.13c0.64-29.5 16.64-56.2 41.77-70.36l2.07-1.07 265.72-124.65c22.21-11.77 51.02-11.08 73.85 2.49 24.52 14.39 39.93 41.18 40.09 69.84v316.08c0.64 29.74-15.46 57.72-42.04 72.38l-267.26 125c-9.71 5.19-21.99 8.27-34.29 8.27z m-8.25-413.51c-5.58 3.5-9.09 9.62-9.25 16.22l0.01 316.68c0.08 6.59 3.67 12.89 9.6 16.5 1.67 0.91 4.51 1.68 7.32 1.68h0.43c2.14 0 4.43-0.56 6.56-1.69L871.7 768.22c4.32-2.46 8.06-8.99 7.91-16.1l-0.01-316.56c-0.04-6.58-3.64-12.87-9.39-16.26-4.38-2.58-9.83-2.73-14.31-0.39L590.18 543.6z" fill="#303133" p-id="2190"></path></svg>